<?xml version="1.0" standalone="no"?>
<!DOCTYPE svg PUBLIC "-//W3C//DTD SVG 20010904//EN"
 "http://www.w3.org/TR/2001/REC-SVG-20010904/DTD/svg10.dtd">
<svg version="1.0" xmlns="http://www.w3.org/2000/svg"
 width="540.000000pt" height="582.000000pt" viewBox="0 0 540.000000 582.000000"
 preserveAspectRatio="xMidYMid meet">

<g transform="translate(0.000000,582.000000) scale(0.100000,-0.100000)"
fill="#9400D3" stroke="none">
<path d="M2950 5695 l0 -125 -125 0 -125 0 0 -885 0 -885 -125 0 -125 0 0
-130 0 -130 -210 0 -210 0 0 -125 0 -125 -215 0 -215 0 0 -170 0 -170 -125 0
-125 0 0 -125 0 -125 -255 0 -255 0 0 170 0 170 -125 0 -125 0 0 125 0 125
-125 0 -125 0 0 255 0 255 -170 0 -170 0 0 -845 0 -845 125 0 125 0 0 -125 0
-125 130 0 130 0 0 -130 0 -130 125 0 125 0 0 -125 0 -125 170 0 170 0 0 -125
0 -125 125 0 125 0 0 -550 0 -550 295 0 295 0 0 170 0 170 -125 0 -125 0 0 85
0 85 125 0 125 0 0 125 0 125 125 0 125 0 0 170 0 170 130 0 130 0 0 -170 0
-170 125 0 125 0 0 -255 0 -255 295 0 295 0 0 170 0 170 -170 0 -170 0 0 380
0 380 170 0 170 0 0 125 0 125 125 0 125 0 0 210 0 210 130 0 130 0 0 465 0
465 125 0 125 0 0 -125 0 -125 125 0 125 0 0 295 0 295 -250 0 -250 0 0 255 0
255 545 0 545 0 0 125 0 125 -420 0 -420 0 0 125 0 125 675 0 675 0 0 635 0
635 -125 0 -125 0 0 125 0 125 -1100 0 -1100 0 0 -125z m590 -465 l0 -170
-165 0 -165 0 0 170 0 170 165 0 165 0 0 -170z"/>
</g>
</svg>
